<svg width="207" height="124" viewBox="0 0 207 124" fill="none" xmlns="http://www.w3.org/2000/svg">
<g clip-path="url(#clip0)">
<path d="M48.9424 32.6321H87.9013V35.7137H52.5136V58.9071H85.7911V61.9887H52.5136V87.4528H88.3072V90.5344H48.9424V32.6321ZM91.3914 32.6321H95.5308L113.874 58.0961L132.623 32.6321L158.125 0.286865L116.228 60.7723L137.818 90.5344H133.516L113.874 63.4484L94.151 90.5344H89.9305L111.683 60.7723L91.3914 32.6321ZM139.36 35.7137V32.6321H183.757V35.7137H163.303V90.5344H159.732V35.7137H139.36Z" fill="white"/>
<path d="M0.203125 32.6321H4.66717L66.2238 124.303L40.7854 90.5344L3.93669 37.0112L3.77436 90.5344H0.203125V32.6321Z" fill="white"/>
<path d="M183.397 86.5227C184.135 86.5227 184.674 85.96 184.674 85.233C184.674 84.5059 184.135 83.9433 183.397 83.9433C182.667 83.9433 182.12 84.5059 182.12 85.233C182.12 85.96 182.667 86.5227 183.397 86.5227ZM186.906 83.1297C186.906 85.2762 188.461 86.6785 190.728 86.6785C193.143 86.6785 194.602 85.233 194.602 82.7228V73.8855H192.656V82.7142C192.656 84.1077 191.953 84.8521 190.711 84.8521C189.599 84.8521 188.843 84.1597 188.817 83.1297H186.906ZM197.147 83.0171C197.286 85.2503 199.154 86.6785 201.933 86.6785C204.904 86.6785 206.762 85.181 206.762 82.7921C206.762 80.9138 205.703 79.8751 203.132 79.2779L201.751 78.9403C200.118 78.5595 199.458 78.0488 199.458 77.1573C199.458 76.0321 200.482 75.2963 202.02 75.2963C203.479 75.2963 204.487 76.0147 204.669 77.1659H206.563C206.45 75.0626 204.591 73.5825 202.046 73.5825C199.31 73.5825 197.486 75.0626 197.486 77.2871C197.486 79.1221 198.519 80.2127 200.786 80.7407L202.402 81.1302C204.061 81.5197 204.791 82.091 204.791 83.0431C204.791 84.151 203.644 84.956 202.081 84.956C200.404 84.956 199.24 84.203 199.075 83.0171H197.147Z" fill="white"/>
</g>
<defs>
<clipPath id="clip0">
<rect width="207" height="124" fill="white"/>
</clipPath>
</defs>
</svg>
