<svg width="137" height="137" viewBox="0 0 137 137" fill="none" xmlns="http://www.w3.org/2000/svg">
<path d="M78.1147 12.9893C78.3212 12.2282 77.9924 11.6097 77.1282 11.1339L75.9305 10.5142L75.5326 10.2782C74.2017 9.4517 73.6575 8.46084 73.9001 7.30562C74.0241 6.72591 74.2919 6.23367 74.7035 5.82891C75.1152 5.42415 75.6271 5.13819 76.2395 4.97103C76.8573 4.79965 77.4946 4.76371 78.1513 4.86321C78.7887 4.96021 79.3393 5.17648 79.8031 5.51202C80.2717 5.84819 80.6053 6.27769 80.8037 6.80054C81.0027 7.31855 81.0483 7.88077 80.9405 8.48719L79.5686 8.3028C79.7007 7.66013 79.6201 7.14017 79.3267 6.74292C79.034 6.34083 78.5735 6.09433 77.9452 6.00342C77.283 5.90814 76.7085 5.99157 76.2217 6.25371C75.735 6.51585 75.4221 6.91857 75.283 7.46189C75.0931 8.17095 75.4656 8.77534 76.4006 9.27506L77.4332 9.79969L77.948 10.1024C79.2325 10.9082 79.7438 11.9243 79.4822 13.1509C79.3521 13.7397 79.0846 14.2295 78.6797 14.6204C78.2754 15.0064 77.7577 15.2793 77.1266 15.4391C76.5003 15.5996 75.8443 15.6282 75.1585 15.5249C74.4957 15.4345 73.9061 15.2156 73.3896 14.8684C72.8786 14.5169 72.5115 14.0806 72.2883 13.5595C72.065 13.0384 72.01 12.4725 72.1233 11.8618L73.488 12.0453C73.3632 12.6692 73.468 13.1923 73.8025 13.6145C74.1424 14.0325 74.6628 14.2917 75.3638 14.392C76.0647 14.4923 76.6631 14.4144 77.1589 14.1583C77.6547 13.9023 77.9733 13.5126 78.1147 12.9893Z" fill="white"/>
<path d="M93.0908 16.9442C92.5052 17.9018 91.7256 18.5395 90.752 18.8573C89.783 19.177 88.7861 19.1252 87.7612 18.7021C87.1507 18.453 86.6701 18.0968 86.3192 17.6334C85.9702 17.1654 85.7716 16.6112 85.7237 15.9708C85.6775 15.3259 85.7671 14.6675 85.9925 13.9957C86.1173 13.6147 86.2727 13.256 86.4588 12.9194L86.889 12.1429C87.6752 10.7288 88.6504 9.75029 89.8145 9.20732C90.985 8.66152 92.1656 8.62929 93.3564 9.11061C94.2845 9.48626 94.9097 10.0729 95.2321 10.8704C95.5563 11.6635 95.5355 12.586 95.17 13.6381L93.8906 13.1491C94.3648 11.7308 94.1052 10.769 93.1117 10.2638L92.8911 10.1638C92.0378 9.81149 91.1943 9.85757 90.3605 10.3021C89.533 10.7437 88.8152 11.507 88.2071 12.5918L87.6618 13.5674L87.3906 14.1537C87.0424 14.9825 86.9352 15.7073 87.069 16.3283C87.2091 16.9464 87.5972 17.3875 88.2334 17.6515C88.9179 17.9393 89.554 17.9916 90.1415 17.8085C90.7336 17.6271 91.299 17.1872 91.8378 16.4888L93.0908 16.9442Z" fill="white"/>
<path d="M102.048 21.3012L99.982 19.9637L97.0103 23.1789L95.8483 22.4265L103.2 14.4821L105.888 16.2317C106.824 16.8435 107.386 17.5443 107.572 18.3341C107.759 19.1239 107.551 19.8994 106.947 20.6605C106.539 21.1929 106.014 21.5541 105.373 21.7442C104.737 21.9369 104.047 21.9468 103.303 21.7739L102.245 26.4546L102.187 26.5306L100.957 25.7344L102.048 21.3012ZM100.773 19.1059L102.466 20.2107C103.056 20.5929 103.655 20.7596 104.262 20.7108C104.872 20.6579 105.382 20.3917 105.792 19.9122C106.185 19.4396 106.342 18.9716 106.264 18.5081C106.186 18.0446 105.88 17.6282 105.346 17.2588L103.56 16.0943L100.773 19.1059Z" fill="white"/>
<path d="M106.422 30.9191C105.956 30.4252 105.658 29.8894 105.528 29.3118C105.402 28.7376 105.453 28.1355 105.682 27.5055C105.915 26.872 106.291 26.2793 106.81 25.7274C107.21 25.292 107.776 24.8269 108.509 24.3319C109.241 23.837 109.995 23.4855 110.77 23.2774C111.545 23.0694 112.281 23.0198 112.977 23.1288C113.919 23.2777 114.727 23.7087 115.402 24.4218C116.117 25.1766 116.435 26.0146 116.356 26.9359C116.28 27.8538 115.831 28.748 115.009 29.6186C114.657 29.9922 114.155 30.4113 113.502 30.8758C112.853 31.3438 112.174 31.701 111.464 31.9475C110.758 32.1976 110.068 32.3079 109.395 32.2785C108.221 32.2279 107.23 31.7748 106.422 30.9191ZM113.818 28.8894C114.524 28.2354 114.937 27.593 115.056 26.9621C115.178 26.3277 114.992 25.7462 114.499 25.2175C114.054 24.7376 113.518 24.4434 112.89 24.3349C112.266 24.2299 111.573 24.3195 110.811 24.6036C110.057 24.8878 109.245 25.3959 108.376 26.128L108.021 26.4464C107.319 27.097 106.904 27.7446 106.778 28.3893C106.653 29.034 106.831 29.6154 107.314 30.1336C107.944 30.8084 108.717 31.12 109.632 31.0684C110.554 31.0169 111.531 30.6239 112.562 29.8896C113.069 29.5276 113.488 29.1942 113.818 28.8894Z" fill="white"/>
<path d="M114.585 39.0692L117.226 43.2055L116.146 43.6514L112.765 38.3544L122.75 34.1784L123.495 35.3452L114.585 39.0692Z" fill="white"/>
<path d="M118.764 46.9823L120.694 51.4941L119.556 51.7578L117.085 45.98L127.618 43.4897L128.163 44.7625L118.764 46.9823Z" fill="white"/>
<path d="M124.027 77.8255C124.789 78.0288 125.406 77.6973 125.878 76.8311L126.493 75.6309L126.727 75.232C127.548 73.8975 128.536 73.3491 129.693 73.5868C130.273 73.7083 130.766 73.9741 131.173 74.384C131.579 74.7939 131.867 75.3046 132.037 75.9163C132.211 76.5334 132.25 77.1705 132.153 77.8276C132.059 78.4654 131.845 79.0169 131.511 79.4821C131.177 79.9522 130.749 80.2876 130.227 80.4882C129.71 80.6894 129.148 80.7374 128.541 80.6322L128.72 79.2595C129.363 79.3889 129.882 79.3061 130.278 79.011C130.679 78.7165 130.924 78.255 131.012 77.6263C131.105 76.9637 131.019 76.3896 130.754 75.9039C130.49 75.4183 130.086 75.1071 129.542 74.9704C128.832 74.7835 128.23 75.1586 127.734 76.0956L127.214 77.1305L126.913 77.6466C126.113 78.9344 125.099 79.4501 123.871 79.1937C123.282 79.0661 122.791 78.8007 122.398 78.3975C122.011 77.9948 121.735 77.4783 121.573 76.8479C121.41 76.2223 121.379 75.5664 121.479 74.8802C121.566 74.217 121.783 73.6264 122.128 73.1085C122.477 72.596 122.912 72.2271 123.432 72.0016C123.952 71.7761 124.518 71.7187 125.129 71.8294L124.951 73.1949C124.327 73.0727 123.804 73.1798 123.383 73.516C122.967 73.8577 122.71 74.3793 122.613 75.0806C122.515 75.782 122.596 76.38 122.854 76.8747C123.112 77.3695 123.503 77.6864 124.027 77.8255Z" fill="white"/>
<path d="M120.136 92.8183C119.176 92.2368 118.535 91.46 118.213 90.4878C117.889 89.5201 117.937 88.523 118.355 87.4963C118.602 86.8848 118.956 86.4026 119.418 86.0498C119.884 85.6987 120.438 85.4979 121.078 85.4472C121.723 85.3982 122.381 85.4851 123.054 85.7076C123.436 85.8307 123.795 85.9846 124.132 86.1693L124.911 86.5962C126.328 87.3763 127.311 88.3474 127.859 89.5092C128.409 90.6773 128.447 91.8578 127.97 93.0507C127.599 93.9803 127.015 94.608 126.219 94.9338C125.427 95.2613 124.504 95.2445 123.451 94.8835L123.934 93.602C125.355 94.0702 126.315 93.8065 126.816 92.8108L126.915 92.5899C127.264 91.7351 127.214 90.8917 126.766 90.0598C126.321 89.2342 125.555 88.5197 124.467 87.9162L123.49 87.375L122.902 87.1063C122.072 86.7617 121.347 86.6576 120.726 86.794C120.109 86.9368 119.669 87.3267 119.408 87.964C119.123 88.6497 119.073 89.286 119.259 89.8727C119.443 90.464 119.885 91.0276 120.586 91.5634L120.136 92.8183Z" fill="white"/>
<path d="M115.817 101.794L117.146 99.7222L113.918 96.7642L114.665 95.599L122.641 102.916L120.903 105.613C120.295 106.551 119.597 107.116 118.807 107.306C118.018 107.496 117.242 107.291 116.478 106.69C115.944 106.284 115.581 105.761 115.388 105.121C115.193 104.485 115.18 103.795 115.35 103.051L110.664 102.013L110.588 101.955L111.379 100.722L115.817 101.794ZM118.007 100.509L116.909 102.207C116.53 102.799 116.365 103.398 116.417 104.006C116.472 104.616 116.741 105.124 117.222 105.531C117.696 105.923 118.165 106.078 118.628 105.998C119.091 105.918 119.506 105.61 119.873 105.074L121.03 103.284L118.007 100.509Z" fill="white"/>
<path d="M106.218 106.209C106.71 105.741 107.244 105.441 107.821 105.308C108.395 105.179 108.997 105.228 109.628 105.454C110.263 105.685 110.857 106.058 111.411 106.574C111.848 106.973 112.316 107.537 112.814 108.268C113.312 108.998 113.667 109.75 113.878 110.524C114.089 111.298 114.142 112.034 114.036 112.731C113.891 113.673 113.464 114.483 112.753 115.161C112.002 115.88 111.165 116.201 110.243 116.125C109.325 116.053 108.429 115.608 107.555 114.79C107.18 114.44 106.759 113.94 106.291 113.289C105.821 112.642 105.46 111.964 105.211 111.255C104.958 110.55 104.845 109.86 104.871 109.187C104.917 108.014 105.366 107.021 106.218 106.209ZM108.279 113.596C108.936 114.3 109.58 114.709 110.212 114.825C110.846 114.945 111.427 114.757 111.954 114.262C112.432 113.815 112.724 113.277 112.83 112.649C112.932 112.024 112.839 111.332 112.552 110.571C112.265 109.818 111.753 109.008 111.017 108.142L110.697 107.789C110.044 107.089 109.394 106.678 108.749 106.554C108.104 106.431 107.523 106.612 107.007 107.097C106.335 107.73 106.027 108.504 106.082 109.419C106.138 110.341 106.535 111.317 107.273 112.345C107.638 112.85 107.973 113.267 108.279 113.596Z" fill="white"/>
<path d="M98.1025 114.406L93.9775 117.064L93.527 115.987L98.8096 112.583L103.028 122.551L101.864 123.301L98.1025 114.406Z" fill="white"/>
<path d="M90.2073 118.619L85.7037 120.568L85.4352 119.432L91.2024 116.936L93.7375 127.458L92.4671 128.008L90.2073 118.619Z" fill="white"/>
<path d="M59.3866 124.013C59.1866 124.776 59.5206 125.392 60.3889 125.86L61.5917 126.47L61.9916 126.702C63.3295 127.517 63.8821 128.504 63.6494 129.661C63.5303 130.242 63.2667 130.736 62.8585 131.144C62.4504 131.553 61.9408 131.843 61.3299 132.015C60.7136 132.192 60.0766 132.233 59.4191 132.139C58.7809 132.048 58.2285 131.836 57.7618 131.505C57.2903 131.172 56.9532 130.746 56.7503 130.225C56.5469 129.708 56.4965 129.146 56.5991 128.539L57.9726 128.712C57.8459 129.356 57.931 129.875 58.2277 130.27C58.5239 130.669 58.9865 130.912 59.6155 130.997C60.2785 131.087 60.8523 130.999 61.3368 130.732C61.8213 130.466 62.1307 130.061 62.2651 129.516C62.449 128.806 62.0714 128.204 61.1322 127.713L60.0951 127.197L59.5778 126.899C58.2866 126.104 57.7665 125.092 58.0177 123.863C58.1428 123.273 58.4062 122.781 58.8077 122.387C59.2087 121.998 59.7241 121.72 60.3538 121.555C60.9787 121.389 61.6344 121.355 62.3211 121.452C62.9846 121.537 63.5761 121.751 64.0955 122.094C64.6095 122.441 64.9803 122.874 65.2079 123.393C65.4356 123.913 65.4954 124.478 65.3874 125.09L64.0212 124.918C64.1406 124.293 64.0314 123.771 63.6933 123.351C63.3499 122.936 62.8272 122.681 62.1255 122.587C61.4237 122.493 60.826 122.576 60.3324 122.836C59.8388 123.096 59.5235 123.489 59.3866 124.013Z" fill="white"/>
<path d="M44.3775 120.186C44.9549 119.223 45.729 118.579 46.6999 118.253C47.6661 117.925 48.6635 117.968 49.6919 118.383C50.3045 118.626 50.7882 118.979 51.1429 119.439C51.496 119.904 51.6992 120.457 51.7526 121.096C51.8043 121.741 51.7203 122.4 51.5006 123.074C51.3791 123.456 51.2267 123.816 51.0434 124.154L50.6199 124.934C49.8458 126.355 48.879 127.342 47.7195 127.895C46.5537 128.45 45.3733 128.493 44.1785 128.021C43.2473 127.654 42.6171 127.072 42.2879 126.278C41.957 125.487 41.9699 124.565 42.3265 123.509L43.61 123.988C43.1479 125.41 43.4157 126.369 44.4134 126.866L44.6348 126.964C45.4911 127.309 46.3342 127.256 47.1642 126.804C47.9879 126.356 48.6991 125.586 49.298 124.496L49.8351 123.516L50.1012 122.928C50.4423 122.096 50.5433 121.37 50.4043 120.75C50.2589 120.134 49.8671 119.696 49.2287 119.437C48.5417 119.155 47.9053 119.108 47.3193 119.296C46.7288 119.483 46.1672 119.928 45.6343 120.631L44.3775 120.186Z" fill="white"/>
<path d="M35.384 115.905L37.4611 117.225L40.4053 113.985L41.5737 114.727L34.2902 122.734L31.5866 121.007C30.6455 120.403 30.0782 119.707 29.8848 118.919C29.6915 118.131 29.8932 117.354 30.49 116.587C30.8941 116.052 31.4157 115.686 32.0549 115.491C32.6899 115.292 33.3797 115.277 34.1243 115.443L35.1431 110.754L35.2003 110.677L36.4367 111.463L35.384 115.905ZM36.6774 118.09L34.9752 116.999C34.3818 116.622 33.7815 116.46 33.1745 116.514C32.5649 116.572 32.0574 116.843 31.6522 117.326C31.263 117.802 31.1094 118.271 31.1913 118.734C31.2733 119.197 31.5831 119.611 32.1207 119.975L33.9156 121.125L36.6774 118.09Z" fill="white"/>
<path d="M30.9278 106.325C31.3977 106.815 31.7002 107.348 31.8353 107.924C31.9669 108.498 31.9207 109.1 31.6967 109.732C31.4693 110.368 31.0986 110.963 30.5846 111.52C30.1878 111.958 29.6254 112.428 28.8972 112.93C28.1691 113.431 27.4184 113.789 26.6451 114.003C25.8719 114.218 25.1365 114.274 24.439 114.171C23.4963 114.03 22.6846 113.606 22.004 112.898C21.2818 112.15 20.9566 111.314 21.0285 110.392C21.0969 109.474 21.5381 108.576 22.3523 107.698C22.7008 107.322 23.1994 106.898 23.8481 106.428C24.4934 105.955 25.1699 105.592 25.8775 105.339C26.5817 105.083 27.2704 104.967 27.9437 104.991C29.1176 105.031 30.1123 105.476 30.9278 106.325ZM23.5492 108.417C22.8488 109.077 22.4419 109.723 22.3284 110.355C22.2114 110.991 22.4018 111.57 22.8993 112.095C23.3485 112.571 23.8874 112.861 24.5158 112.964C25.1408 113.063 25.833 112.968 26.5924 112.677C27.3449 112.387 28.1524 111.872 29.015 111.132L29.367 110.811C30.0639 110.154 30.4726 109.503 30.593 108.858C30.7134 108.212 30.5299 107.632 30.0427 107.118C29.407 106.448 28.6316 106.143 27.7167 106.203C26.7949 106.262 25.8215 106.663 24.7966 107.407C24.2928 107.773 23.877 108.11 23.5492 108.417Z" fill="white"/>
<path d="M22.6958 98.2444L20.0203 94.1307L21.096 93.6757L24.5223 98.9437L14.5723 103.205L13.8176 102.044L22.6958 98.2444Z" fill="white"/>
<path d="M18.4494 90.3672L16.4812 85.8719L17.6168 85.5986L20.1373 91.3551L9.62538 93.9349L9.07016 92.6669L18.4494 90.3672Z" fill="white"/>
<path d="M12.9243 59.5698C12.1606 59.3731 11.5464 59.7098 11.0817 60.58L10.4773 61.7854L10.2464 62.1863C9.43693 63.5277 8.45309 64.0845 7.29488 63.8566C6.71363 63.74 6.21801 63.4785 5.80803 63.0721C5.39805 62.6657 5.10558 62.1574 4.93062 61.5472C4.75137 60.9316 4.7073 60.2948 4.79841 59.6369C4.88727 58.9983 5.0965 58.445 5.4261 57.977C5.75626 57.5041 6.18147 57.1651 6.70175 56.96C7.21717 56.7544 7.77876 56.7016 8.38651 56.8017L8.21965 58.1759C7.57534 58.0519 7.05645 58.1392 6.66298 58.4376C6.26465 58.7355 6.02405 59.1991 5.94117 59.8285C5.85435 60.4919 5.9451 61.0652 6.21343 61.5486C6.48175 62.032 6.88844 62.3397 7.43349 62.4718C8.14492 62.6527 8.7445 62.2725 9.23225 61.3312L9.74366 60.2919L10.0398 59.7733C10.8291 58.4787 11.8386 57.9544 13.0685 58.2004C13.6589 58.323 14.1521 58.5842 14.5481 58.9841C14.9392 59.3834 15.2187 59.8976 15.3866 60.5266C15.555 61.1508 15.5919 61.8064 15.4975 62.4934C15.4155 63.1573 15.2042 63.7497 14.8635 64.2706C14.5186 64.786 14.087 65.1586 13.5688 65.3885C13.0506 65.6184 12.4854 65.6806 11.8734 65.5751L12.0394 64.2082C12.6649 64.3251 13.1866 64.2136 13.6045 63.8737C14.0182 63.5285 14.2707 63.0048 14.362 62.3026C14.4533 61.6005 14.3678 61.0031 14.1054 60.5106C13.8431 60.0181 13.4494 59.7045 12.9243 59.5698Z" fill="white"/>
<path d="M16.688 44.5445C17.6529 45.1178 18.3005 45.8892 18.6308 46.8586C18.9628 47.8235 18.9237 48.821 18.5137 49.8512C18.2725 50.4648 17.9224 50.95 17.4635 51.3067C17 51.6617 16.4484 51.8673 15.8087 51.9234C15.1644 51.9778 14.5049 51.8966 13.8303 51.6798C13.4478 51.5599 13.087 51.4091 12.7481 51.2272L11.9662 50.8071C10.5422 50.039 9.55132 49.0763 8.99353 47.9192C8.43285 46.7558 8.38555 45.5757 8.85164 44.3788C9.21541 43.4461 9.79399 42.8134 10.5874 42.4808C11.3762 42.1466 12.2989 42.1555 13.3556 42.5076L12.883 43.7931C11.4587 43.3371 10.5003 43.609 10.0078 44.6088L9.91067 44.8306C9.56928 45.6884 9.62613 46.5313 10.0812 47.3593C10.5334 48.1811 11.3058 48.8891 12.3983 49.4833L13.3807 50.0162L13.9705 50.2798C14.8036 50.6174 15.5298 50.7153 16.1489 50.5736C16.7652 50.4256 17.2013 50.0319 17.4572 49.3925C17.7363 48.7043 17.7805 48.0677 17.5898 47.4825C17.4009 46.8928 16.9538 46.333 16.2486 45.8032L16.688 44.5445Z" fill="white"/>
<path d="M20.9302 35.5328L19.6192 37.6155L22.872 40.5459L22.1346 41.7174L14.0969 34.4681L15.8121 31.7571C16.412 30.8134 17.1055 30.2432 17.8929 30.0465C18.6803 29.8498 19.4583 30.0482 20.2271 30.6418C20.7646 31.0436 21.1325 31.5636 21.3307 32.2019C21.5315 32.8361 21.5503 33.5258 21.3869 34.2711L26.0807 35.27L26.1574 35.3269L25.377 36.5666L20.9302 35.5328ZM18.7514 36.8355L19.8345 35.1287C20.2091 34.5336 20.3681 33.9327 20.3116 33.3259C20.2509 32.7165 19.9782 32.2102 19.4935 31.807C19.016 31.4199 18.546 31.2683 18.0836 31.3522C17.6211 31.4361 17.2086 31.7476 16.8461 32.2868L15.7045 34.0867L18.7514 36.8355Z" fill="white"/>
<path d="M30.4917 31.036C30.0037 31.508 29.4718 31.8128 28.8959 31.9503C28.3234 32.0844 27.7207 32.0408 27.0877 31.8195C26.4513 31.5948 25.8539 31.2266 25.2955 30.7149C24.855 30.32 24.3826 29.7596 23.8784 29.0336C23.3741 28.3076 23.013 27.5584 22.7951 26.7861C22.5772 26.0138 22.5183 25.2786 22.6184 24.5807C22.7552 23.6374 23.1759 22.8239 23.8803 22.1402C24.6259 21.4149 25.4598 21.0862 26.382 21.1541C27.3008 21.2186 28.2007 21.6561 29.0817 22.4665C29.4598 22.8133 29.8852 23.3101 30.358 23.9569C30.8342 24.6002 31.2001 25.2751 31.4557 25.9816C31.7147 26.6847 31.8338 27.3729 31.813 28.0463C31.7774 29.2204 31.3369 30.217 30.4917 31.036ZM28.3678 23.6664C27.7048 22.9688 27.0572 22.5646 26.4248 22.4538C25.7889 22.3396 25.2098 22.5324 24.6875 23.0322C24.2132 23.4834 23.9259 24.0235 23.8255 24.6524C23.7285 25.2778 23.8268 25.9696 24.1207 26.7277C24.4144 27.4789 24.9329 28.2843 25.6761 29.1438L25.9989 29.4943C26.6584 30.1885 27.3112 30.5944 27.9575 30.712C28.6037 30.8296 29.1829 30.6438 29.6949 30.1544C30.3615 29.5157 30.6632 28.7391 30.6 27.8245C30.5367 26.9029 30.1313 25.9313 29.3839 24.9095C29.0154 24.4073 28.6767 23.9929 28.3678 23.6664Z" fill="white"/>
<path d="M38.5369 22.7697L42.6392 20.0768L43.0988 21.1506L37.8454 24.5992L33.5423 14.6675L34.6995 13.9078L38.5369 22.7697Z" fill="white"/>
<path d="M46.396 18.4898L50.8828 16.5024L51.161 17.6369L45.4152 20.1819L42.7907 9.68102L44.0564 9.12041L46.396 18.4898Z" fill="white"/>
<circle cx="60.1467" cy="9.05834" r="2.5" transform="rotate(-62.0538 60.1467 9.05834)" fill="white"/>
<circle cx="12.0205" cy="76.3552" r="2.5" transform="rotate(-62.0538 12.0205 76.3552)" fill="white"/>
<circle cx="76.7067" cy="126.968" r="2.5" transform="rotate(-62.0538 76.7067 126.968)" fill="white"/>
<circle cx="128.305" cy="62.1098" r="2.5" transform="rotate(-62.0538 128.305 62.1098)" fill="white"/>
</svg>
