<svg width="145" height="144" viewBox="0 0 145 144" fill="none" xmlns="http://www.w3.org/2000/svg">
<path d="M53.7881 136.415L52.7981 136.158C52.5132 137.445 53.4419 138.702 55.0754 139.126C56.6925 139.545 58.2067 138.933 58.5745 137.514C58.8695 136.376 58.2198 135.486 56.9981 134.764L56.0355 134.198C55.2086 133.719 54.4979 133.2 54.7159 132.359C54.9554 131.435 56.0046 131.055 57.1761 131.359C58.1827 131.62 58.9582 132.296 58.7927 133.275L59.8488 133.548C60.1089 132.136 59.2306 130.905 57.4156 130.435C55.4685 129.93 54.0851 130.716 53.7302 132.086C53.3197 133.67 54.6887 134.571 55.5033 135.028L56.3015 135.482C56.8858 135.809 57.8068 136.4 57.5716 137.307C57.3621 138.116 56.4656 138.518 55.3436 138.227C54.3206 137.962 53.6712 137.274 53.7881 136.415Z" fill="white" fill-opacity="0.6"/>
<path d="M40.6201 130.38C40.1536 132.138 41.0014 133.703 42.5911 134.448C44.6129 135.396 46.8098 134.524 47.982 132.024C49.1541 129.524 48.4188 127.278 46.397 126.33C44.8073 125.585 43.0623 125.934 42.0093 127.417L42.9662 127.865C43.7114 126.878 44.9278 126.733 45.9773 127.225C47.4126 127.898 48.0183 129.537 47.056 131.59C46.0936 133.643 44.446 134.226 43.0107 133.553C41.9612 133.061 41.2947 132.033 41.577 130.829L40.6201 130.38Z" fill="white" fill-opacity="0.6"/>
<path d="M39.7867 122.663L38.9192 122.06L36.9723 124.858L35.4052 123.768C35.3422 123.724 35.2827 123.683 35.2208 123.645L35.659 119.792L34.6515 119.091L34.2123 123.177C33.0827 122.853 32.1376 123.301 31.4756 124.253C30.5947 125.519 30.7029 126.975 32.382 128.144L34.8027 129.828L39.7867 122.663ZM36.4272 125.642L34.4706 128.454L32.9454 127.393C31.784 126.585 31.7305 125.707 32.3292 124.847C32.9278 123.986 33.7406 123.773 34.888 124.571L36.4272 125.642Z" fill="white" fill-opacity="0.6"/>
<path d="M24.2384 114.95C22.2867 116.903 22.2154 119.265 23.7951 120.844C25.3747 122.422 27.737 122.349 29.6887 120.395C31.6405 118.442 31.7117 116.079 30.1321 114.501C28.5525 112.923 26.1901 112.996 24.2384 114.95ZM24.9619 115.672C26.5642 114.069 28.3119 114.08 29.4333 115.2C30.5548 116.321 30.5676 118.069 28.9653 119.672C27.3629 121.276 25.6152 121.265 24.4938 120.144C23.3724 119.024 23.3596 117.276 24.9619 115.672Z" fill="white" fill-opacity="0.6"/>
<path d="M24.5431 108.067L21.5548 103.917L20.794 104.465L23.1647 107.757L16.8435 112.31L17.461 113.167L24.5431 108.067Z" fill="white" fill-opacity="0.6"/>
<path d="M20.578 101.863L18.1224 97.3774L17.3001 97.8275L19.2481 101.386L12.4153 105.127L12.9228 106.054L20.578 101.863Z" fill="white" fill-opacity="0.6"/>
<path d="M6.49634 74.9469L6.42521 73.9266C5.1149 74.065 4.21737 75.345 4.33474 77.0284C4.45092 78.6948 5.51144 79.9365 6.9738 79.8346C8.14709 79.7528 8.78499 78.854 9.08124 77.4664L9.31263 76.3738C9.50367 75.4378 9.76985 74.599 10.6371 74.5386C11.5893 74.4722 12.2825 75.3465 12.3666 76.5538C12.439 77.5911 12.0439 78.5413 11.0635 78.6951L11.1394 79.7834C12.5607 79.5818 13.4493 78.3579 13.3189 76.4875C13.179 74.481 11.9943 73.4187 10.5829 73.5171C8.95053 73.6309 8.53128 75.2151 8.35606 76.1329L8.17965 77.0337C8.05465 77.6917 7.78689 78.7527 6.85166 78.8179C6.01845 78.876 5.35295 78.1535 5.27234 76.9972C5.19884 75.9429 5.64474 75.1088 6.49634 74.9469Z" fill="white" fill-opacity="0.6"/>
<path d="M8.03709 60.5442C6.22195 60.6601 5.00752 61.9609 4.80566 63.705C4.54893 65.9231 6.07293 67.7296 8.81598 68.0471C11.559 68.3646 13.4554 66.954 13.7121 64.7358C13.914 62.9918 13.0288 61.4479 11.2881 60.9205L11.1666 61.9703C12.3394 62.3634 12.8633 63.4707 12.73 64.6221C12.5478 66.1969 11.1856 67.2918 8.93357 67.0312C6.68156 66.7705 5.60549 65.3934 5.78774 63.8186C5.92101 62.6672 6.68398 61.7088 7.91558 61.594L8.03709 60.5442Z" fill="white" fill-opacity="0.6"/>
<path d="M15.0898 57.3032L15.3865 56.2889L12.1146 55.3315L12.6508 53.4993C12.6723 53.4256 12.6927 53.3561 12.7089 53.2854L16.5019 52.4771L16.8465 51.2992L12.8324 52.1804C12.7808 51.0065 12.0556 50.2526 10.9432 49.9271C9.46264 49.4939 8.11624 50.059 7.54182 52.0221L6.71369 54.8523L15.0898 57.3032ZM11.1985 55.0635L7.91025 54.1013L8.43202 52.3181C8.82933 50.9603 9.64507 50.6306 10.6512 50.925C11.6573 51.2194 12.1176 51.9224 11.7251 53.2639L11.1985 55.0635Z" fill="white" fill-opacity="0.6"/>
<path d="M17.4662 40.1104C14.9941 38.8801 12.7313 39.5627 11.7364 41.5618C10.7415 43.5608 11.5613 45.7776 14.0334 47.0079C16.5055 48.2383 18.7683 47.5556 19.7632 45.5566C20.7581 43.5575 19.9383 41.3407 17.4662 40.1104ZM17.0105 41.026C19.0401 42.0361 19.5844 43.6969 18.8781 45.1161C18.1718 46.5353 16.5187 47.1024 14.4891 46.0923C12.4595 45.0823 11.9152 43.4215 12.6215 42.0023C13.3278 40.5831 14.9809 40.0159 17.0105 41.026Z" fill="white" fill-opacity="0.6"/>
<path d="M24.0895 38.2137L27.0753 34.0623L26.3142 33.5149L23.9455 36.8083L17.6215 32.2599L17.0044 33.1179L24.0895 38.2137Z" fill="white" fill-opacity="0.6"/>
<path d="M28.7132 32.4833L32.1866 28.7304L31.4986 28.0936L28.743 31.0709L23.026 25.7797L22.3082 26.5553L28.7132 32.4833Z" fill="white" fill-opacity="0.6"/>
<path d="M49.7644 10.5828L50.7092 10.1913C50.1619 8.99276 48.6632 8.54819 47.1042 9.19409C45.5609 9.83346 44.7202 11.2334 45.2813 12.5877C45.7315 13.6743 46.7863 13.9937 48.1962 13.834L49.3057 13.7064C50.2539 13.5903 51.1338 13.5764 51.4665 14.3795C51.8319 15.2613 51.2229 16.1963 50.1048 16.6595C49.1442 17.0575 48.1177 16.9846 47.6606 16.1039L46.6527 16.5214C47.2953 17.8051 48.738 18.259 50.4702 17.5414C52.3284 16.7715 52.9594 15.3108 52.4179 14.0038C51.7916 12.492 50.1563 12.5975 49.2303 12.7229L48.3201 12.8417C47.6565 12.9321 46.5654 13.0151 46.2066 12.149C45.8869 11.3774 46.3607 10.5169 47.4315 10.0732C48.4078 9.66875 49.3404 9.82666 49.7644 10.5828Z" fill="white" fill-opacity="0.6"/>
<path d="M63.9103 7.46994C63.2239 5.78558 61.6048 5.04711 59.8869 5.40956C57.702 5.87054 56.473 7.88934 57.0431 10.5912C57.6131 13.2931 59.553 14.6433 61.7378 14.1823C63.4557 13.8199 64.6385 12.4902 64.5859 10.6722L63.5519 10.8903C63.5515 12.1273 62.6679 12.9757 61.5337 13.215C59.9827 13.5423 58.5118 12.5983 58.0438 10.3801C57.5758 8.16188 58.5399 6.70416 60.091 6.3769C61.2251 6.13761 62.3762 6.55673 62.8762 7.68811L63.9103 7.46994Z" fill="white" fill-opacity="0.6"/>
<path d="M69.2231 13.1281L70.2791 13.0874L70.1479 9.68084L72.0556 9.60735C72.1322 9.6044 72.2046 9.60161 72.2768 9.59456L74.2478 12.9345L75.4741 12.8873L73.3638 9.36078C74.4606 8.93898 74.9451 8.01197 74.9005 6.85374C74.8411 5.31227 73.8777 4.21502 71.8338 4.29377L68.8871 4.40729L69.2231 13.1281ZM70.1111 8.72701L69.9792 5.30341L71.8358 5.23188C73.2495 5.17742 73.8212 5.84625 73.8615 6.89377C73.9019 7.94128 73.3814 8.60101 71.9847 8.65482L70.1111 8.72701Z" fill="white" fill-opacity="0.6"/>
<path d="M86.2811 9.9221C86.6626 7.18722 85.2967 5.25839 83.0852 4.94983C80.8737 4.64128 79.032 6.12259 78.6504 8.85747C78.2688 11.5923 79.6347 13.5212 81.8463 13.8297C84.0578 14.1383 85.8995 12.657 86.2811 9.9221ZM85.2681 9.78077C84.9549 12.0261 83.5529 13.0696 81.9829 12.8506C80.4129 12.6315 79.3501 11.2441 79.6633 8.99879C79.9766 6.75349 81.3786 5.70994 82.9486 5.92899C84.5186 6.14804 85.5814 7.53548 85.2681 9.78077Z" fill="white" fill-opacity="0.6"/>
<path d="M90.1828 15.5999L95.0675 17.1128L95.3449 16.2173L91.4697 15.0171L93.7744 7.57601L92.7649 7.26334L90.1828 15.5999Z" fill="white" fill-opacity="0.6"/>
<path d="M97.0848 18.1646L101.747 20.2664L102.132 19.4118L98.4336 17.7443L101.635 10.643L100.672 10.2086L97.0848 18.1646Z" fill="white" fill-opacity="0.6"/>
<path d="M124.536 31.1707L125.208 31.9423C126.17 31.0427 126.116 29.4803 125.008 28.2071C123.912 26.9468 122.318 26.5943 121.212 27.5564C120.324 28.3283 120.356 29.43 120.956 30.7161L121.429 31.7277C121.84 32.59 122.133 33.4199 121.477 33.9904C120.757 34.6169 119.677 34.3364 118.882 33.4233C118.2 32.6388 117.943 31.6423 118.633 30.9291L117.917 30.106C116.904 31.1229 116.932 32.6351 118.162 34.0498C119.482 35.5673 121.068 35.7018 122.135 34.7732C123.37 33.6992 122.75 32.1821 122.338 31.3439L121.936 30.5185C121.639 29.918 121.214 28.9097 121.921 28.2944C122.552 27.7462 123.518 27.9222 124.279 28.7967C124.972 29.5941 125.119 30.5285 124.536 31.1707Z" fill="white" fill-opacity="0.6"/>
<path d="M131.981 43.5962C133.36 42.4105 133.546 40.6407 132.657 39.1268C131.526 37.2015 129.222 36.6772 126.841 38.0758C124.46 39.4744 123.795 41.7426 124.926 43.6679C125.816 45.1818 127.452 45.8811 129.159 45.2538L128.624 44.3426C127.451 44.7351 126.366 44.1666 125.779 43.1672C124.976 41.8003 125.404 40.1058 127.359 38.9576C129.313 37.8094 131.002 38.2607 131.805 39.6276C132.392 40.627 132.36 41.8516 131.446 42.685L131.981 43.5962Z" fill="white" fill-opacity="0.6"/>
<path d="M128.303 50.4309L128.677 51.4194L131.866 50.2131L132.541 51.9987C132.568 52.0704 132.594 52.1382 132.623 52.2044L130.082 55.134L130.517 56.2819L133.19 53.1609C133.939 54.067 134.972 54.2321 136.056 53.8219C137.498 53.2761 138.233 52.0141 137.509 50.101L136.466 47.3429L128.303 50.4309ZM132.758 49.8754L135.963 48.6631L136.62 50.4008C137.121 51.7241 136.668 52.4785 135.688 52.8494C134.707 53.2203 133.916 52.9364 133.422 51.6291L132.758 49.8754Z" fill="white" fill-opacity="0.6"/>
<path d="M136.76 65.5875C139.474 65.0808 140.869 63.1731 140.46 60.9781C140.05 58.783 138.06 57.5071 135.346 58.0138C132.631 58.5205 131.236 60.4282 131.646 62.6233C132.056 64.8183 134.045 66.0942 136.76 65.5875ZM136.572 64.5822C134.343 64.9982 132.909 64.0002 132.618 62.4419C132.327 60.8835 133.305 59.4352 135.534 59.0192C137.762 58.6032 139.197 59.6012 139.488 61.1595C139.779 62.7178 138.8 64.1662 136.572 64.5822Z" fill="white" fill-opacity="0.6"/>
<path d="M132.615 71.0904L132.732 76.2027L133.669 76.1813L133.576 72.1255L141.364 71.9479L141.34 70.8913L132.615 71.0904Z" fill="white" fill-opacity="0.6"/>
<path d="M132.375 78.4497L131.862 83.5376L132.795 83.6316L133.202 79.5952L140.952 80.3761L141.058 79.3246L132.375 78.4497Z" fill="white" fill-opacity="0.6"/>
<path d="M128.76 108.611L128.241 109.492C129.4 110.12 130.864 109.572 131.72 108.117C132.567 106.678 132.395 105.054 131.131 104.31C130.117 103.714 129.083 104.094 128.054 105.071L127.245 105.841C126.558 106.505 125.864 107.046 125.114 106.605C124.292 106.121 124.215 105.008 124.828 103.965C125.355 103.069 126.219 102.509 127.114 102.936L127.667 101.996C126.381 101.358 124.956 101.865 124.006 103.481C122.986 105.215 123.362 106.761 124.581 107.478C125.992 108.308 127.234 107.239 127.897 106.581L128.552 105.938C129.028 105.466 129.849 104.743 130.657 105.218C131.377 105.641 131.517 106.614 130.929 107.613C130.393 108.524 129.554 108.959 128.76 108.611Z" fill="white" fill-opacity="0.6"/>
<path d="M119.342 119.616C120.904 120.547 122.642 120.161 123.795 118.837C125.261 117.154 125.026 114.802 122.944 112.988C120.862 111.175 118.5 111.265 117.034 112.949C115.88 114.273 115.737 116.047 116.874 117.466L117.568 116.669C116.823 115.682 117.018 114.472 117.779 113.598C118.82 112.403 120.563 112.27 122.272 113.759C123.982 115.248 124.09 116.993 123.049 118.188C122.288 119.062 121.117 119.421 120.036 118.819L119.342 119.616Z" fill="white" fill-opacity="0.6"/>
<path d="M111.693 118.299L110.874 118.967L113.031 121.608L111.552 122.815C111.493 122.864 111.437 122.909 111.383 122.959L107.798 121.479L106.848 122.256L110.656 123.8C110.035 124.797 110.206 125.829 110.939 126.727C111.915 127.922 113.345 128.217 114.929 126.923L117.213 125.058L111.693 118.299ZM113.635 122.347L115.802 125L114.363 126.176C113.267 127.071 112.408 126.881 111.745 126.069C111.082 125.257 111.1 124.417 112.182 123.533L113.635 122.347Z" fill="white" fill-opacity="0.6"/>
<path d="M100.007 131.131C101.349 133.544 103.601 134.261 105.553 133.176C107.504 132.09 108.082 129.798 106.739 127.385C105.397 124.972 103.145 124.255 101.194 125.341C99.2423 126.426 98.6642 128.718 100.007 131.131ZM100.9 130.634C99.7983 128.653 100.289 126.975 101.674 126.205C103.059 125.434 104.744 125.902 105.846 127.883C106.948 129.864 106.457 131.541 105.072 132.312C103.687 133.083 102.003 132.615 100.9 130.634Z" fill="white" fill-opacity="0.6"/>
<path d="M93.4726 128.948L88.6619 130.683L88.9798 131.564L92.7963 130.189L95.4379 137.517L96.4321 137.159L93.4726 128.948Z" fill="white" fill-opacity="0.6"/>
<path d="M86.4179 131.058L81.4306 132.188L81.6377 133.102L85.5943 132.206L87.3152 139.803L88.3459 139.57L86.4179 131.058Z" fill="white" fill-opacity="0.6"/>
<circle cx="37" cy="19" r="2" fill="white" fill-opacity="0.6"/>
<circle cx="72" cy="138" r="2" fill="white" fill-opacity="0.6"/>
<circle cx="134" cy="94" r="2" fill="white" fill-opacity="0.6"/>
<circle cx="112" cy="22" r="2" fill="white" fill-opacity="0.6"/>
<circle cx="11" cy="91" r="2" fill="white" fill-opacity="0.6"/>
</svg>
